<?xml version="1.0" encoding="UTF-8"?>
<svg xmlns="http://www.w3.org/2000/svg" xmlns:xlink="http://www.w3.org/1999/xlink" width="64px" height="64px" viewBox="0 0 64 64" version="1.1">
<g id="surface1">
<path style=" stroke:none;fill-rule:nonzero;fill:rgb(98.431373%,85.882353%,81.568627%);fill-opacity:1;" d="M 9.433594 19.863281 L 4.414062 19.863281 C 3.195312 19.867188 2.210938 20.851562 2.207031 22.070312 C 2.214844 23.285156 3.199219 24.265625 4.414062 24.277344 L 7.480469 24.277344 Z M 9.433594 19.863281 "/>
<path style=" stroke:none;fill-rule:nonzero;fill:rgb(69.019608%,82.745098%,94.117647%);fill-opacity:1;" d="M 4.414062 28.691406 L 12.070312 11.453125 C 12.78125 9.859375 14.363281 8.828125 16.109375 8.828125 L 30.898438 8.828125 L 33.101562 29.792969 Z M 4.414062 28.691406 "/>
<path style=" stroke:none;fill-rule:nonzero;fill:rgb(100%,100%,100%);fill-opacity:1;" d="M 14.34375 24.277344 C 13.878906 24.277344 13.460938 23.984375 13.304688 23.542969 C 13.148438 23.105469 13.285156 22.613281 13.644531 22.316406 L 25.78125 12.386719 C 26.085938 12.128906 26.507812 12.058594 26.878906 12.195312 C 27.253906 12.335938 27.523438 12.664062 27.585938 13.058594 C 27.648438 13.453125 27.492188 13.847656 27.179688 14.09375 L 15.042969 24.027344 C 14.84375 24.1875 14.597656 24.277344 14.34375 24.277344 Z M 14.34375 24.277344 "/>
<path style=" stroke:none;fill-rule:nonzero;fill:rgb(98.431373%,85.882353%,81.568627%);fill-opacity:1;" d="M 33.101562 55.171875 L 4.730469 55.171875 C 2.207031 55.257812 0.0898438 53.28125 0 50.757812 L 0 33.101562 C 0.0898438 30.578125 2.207031 28.605469 4.730469 28.691406 L 33.101562 28.691406 Z M 33.101562 55.171875 "/>
<path style=" stroke:none;fill-rule:nonzero;fill:rgb(50.196078%,18.431373%,20.392157%);fill-opacity:1;" d="M 18.757812 46.34375 L 18.757812 39.722656 C 18.757812 38.503906 19.746094 37.515625 20.964844 37.515625 L 32 37.515625 L 32 46.34375 Z M 18.757812 46.34375 "/>
<path style=" stroke:none;fill-rule:nonzero;fill:rgb(17.254902%,24.313725%,31.372549%);fill-opacity:1;" d="M 4.414062 54.070312 L 17.65625 54.070312 L 17.65625 59.585938 C 17.65625 62.023438 15.679688 64 13.242188 64 L 8.828125 64 C 6.390625 64 4.414062 62.023438 4.414062 59.585938 Z M 4.414062 54.070312 "/>
<path style=" stroke:none;fill-rule:nonzero;fill:rgb(75.686275%,85.882353%,96.470588%);fill-opacity:1;" d="M 12.136719 37.515625 C 12.136719 39.34375 10.65625 40.828125 8.828125 40.828125 C 7 40.828125 5.515625 39.34375 5.515625 37.515625 C 5.515625 35.6875 7 34.207031 8.828125 34.207031 C 10.65625 34.207031 12.136719 35.6875 12.136719 37.515625 Z M 12.136719 37.515625 "/>
<path style="fill:none;stroke-width:2;stroke-linecap:round;stroke-linejoin:round;stroke:rgb(0%,0%,0%);stroke-opacity:1;stroke-miterlimit:4;" d="M 24.001465 45.999268 L 28.001709 45.999268 " transform="matrix(1.103448,0,0,1.103448,0,0)"/>
<path style=" stroke:none;fill-rule:nonzero;fill:rgb(98.431373%,85.882353%,81.568627%);fill-opacity:1;" d="M 33.101562 46.34375 L 33.101562 55.171875 L 4.730469 55.171875 C 2.207031 55.257812 0.0898438 53.28125 0 50.757812 L 0 46.34375 Z M 33.101562 46.34375 "/>
<path style=" stroke:none;fill-rule:nonzero;fill:rgb(92.54902%,94.117647%,94.509804%);fill-opacity:1;" d="M 18.757812 41.929688 L 32 41.929688 L 32 46.34375 L 18.757812 46.34375 Z M 18.757812 41.929688 "/>
<path style=" stroke:none;fill-rule:nonzero;fill:rgb(75.686275%,85.882353%,96.470588%);fill-opacity:1;" d="M 54.070312 4.414062 L 60.691406 4.414062 C 62.519531 4.414062 64 5.894531 64 7.722656 L 64 56.277344 C 64 58.105469 62.519531 59.585938 60.691406 59.585938 L 34.207031 59.585938 C 32.378906 59.585938 30.898438 58.105469 30.898438 56.277344 L 30.898438 7.722656 C 30.898438 5.894531 32.378906 4.414062 34.207031 4.414062 Z M 54.070312 4.414062 "/>
<path style=" stroke:none;fill-rule:nonzero;fill:rgb(32.941176%,45.882353%,50.196078%);fill-opacity:1;" d="M 54.070312 4.414062 C 54.058594 5.628906 53.078125 6.613281 51.863281 6.621094 L 43.035156 6.621094 C 41.816406 6.617188 40.832031 5.632812 40.828125 4.414062 C 40.835938 3.199219 41.820312 2.214844 43.035156 2.207031 L 44.335938 2.207031 C 44.800781 0.886719 46.046875 0 47.449219 0 C 48.847656 0 50.097656 0.886719 50.558594 2.207031 L 51.863281 2.207031 C 53.078125 2.210938 54.066406 3.195312 54.070312 4.414062 Z M 54.070312 4.414062 "/>
<path style=" stroke:none;fill-rule:nonzero;fill:rgb(72.156863%,73.72549%,79.215686%);fill-opacity:1;" d="M 48.550781 14.34375 L 35.308594 14.34375 C 34.699219 14.34375 34.207031 13.851562 34.207031 13.242188 C 34.207031 12.632812 34.699219 12.136719 35.308594 12.136719 L 48.550781 12.136719 C 49.160156 12.136719 49.65625 12.632812 49.65625 13.242188 C 49.65625 13.851562 49.160156 14.34375 48.550781 14.34375 Z M 41.929688 18.757812 L 35.308594 18.757812 C 34.699219 18.757812 34.207031 18.265625 34.207031 17.65625 C 34.207031 17.046875 34.699219 16.550781 35.308594 16.550781 L 41.929688 16.550781 C 42.539062 16.550781 43.035156 17.046875 43.035156 17.65625 C 43.035156 18.265625 42.539062 18.757812 41.929688 18.757812 Z M 41.929688 18.757812 "/>
<path style=" stroke:none;fill-rule:nonzero;fill:rgb(50.196078%,86.27451%,65.098039%);fill-opacity:1;" d="M 54.070312 29.792969 C 53.777344 29.792969 53.496094 29.675781 53.289062 29.46875 L 52.183594 28.367188 C 51.765625 27.933594 51.773438 27.246094 52.199219 26.820312 C 52.625 26.394531 53.3125 26.386719 53.746094 26.804688 L 54.152344 27.210938 L 58.894531 23.414062 C 59.371094 23.03125 60.066406 23.109375 60.445312 23.585938 C 60.828125 24.0625 60.75 24.757812 60.273438 25.136719 L 54.757812 29.550781 C 54.5625 29.707031 54.320312 29.792969 54.070312 29.792969 Z M 54.070312 29.792969 "/>
<path style=" stroke:none;fill-rule:nonzero;fill:rgb(72.156863%,73.72549%,79.215686%);fill-opacity:1;" d="M 48.550781 25.378906 L 35.308594 25.378906 C 34.699219 25.378906 34.207031 24.886719 34.207031 24.277344 C 34.207031 23.667969 34.699219 23.171875 35.308594 23.171875 L 48.550781 23.171875 C 49.160156 23.171875 49.65625 23.667969 49.65625 24.277344 C 49.65625 24.886719 49.160156 25.378906 48.550781 25.378906 Z M 41.929688 29.792969 L 35.308594 29.792969 C 34.699219 29.792969 34.207031 29.300781 34.207031 28.691406 C 34.207031 28.082031 34.699219 27.585938 35.308594 27.585938 L 41.929688 27.585938 C 42.539062 27.585938 43.035156 28.082031 43.035156 28.691406 C 43.035156 29.300781 42.539062 29.792969 41.929688 29.792969 Z M 41.929688 29.792969 "/>
<path style=" stroke:none;fill-rule:nonzero;fill:rgb(50.196078%,86.27451%,65.098039%);fill-opacity:1;" d="M 54.070312 40.828125 C 53.777344 40.828125 53.496094 40.710938 53.289062 40.503906 L 52.183594 39.402344 C 51.765625 38.96875 51.773438 38.28125 52.199219 37.855469 C 52.625 37.429688 53.3125 37.421875 53.746094 37.839844 L 54.152344 38.246094 L 58.894531 34.449219 C 59.371094 34.066406 60.066406 34.144531 60.445312 34.621094 C 60.828125 35.097656 60.75 35.792969 60.273438 36.171875 L 54.757812 40.585938 C 54.5625 40.742188 54.320312 40.828125 54.070312 40.828125 Z M 54.070312 40.828125 "/>
<path style=" stroke:none;fill-rule:nonzero;fill:rgb(72.156863%,73.72549%,79.215686%);fill-opacity:1;" d="M 48.550781 36.414062 L 35.308594 36.414062 C 34.699219 36.414062 34.207031 35.917969 34.207031 35.308594 C 34.207031 34.699219 34.699219 34.207031 35.308594 34.207031 L 48.550781 34.207031 C 49.160156 34.207031 49.65625 34.699219 49.65625 35.308594 C 49.65625 35.917969 49.160156 36.414062 48.550781 36.414062 Z M 41.929688 40.828125 L 35.308594 40.828125 C 34.699219 40.828125 34.207031 40.332031 34.207031 39.722656 C 34.207031 39.113281 34.699219 38.621094 35.308594 38.621094 L 41.929688 38.621094 C 42.539062 38.621094 43.035156 39.113281 43.035156 39.722656 C 43.035156 40.332031 42.539062 40.828125 41.929688 40.828125 Z M 41.929688 40.828125 "/>
<path style=" stroke:none;fill-rule:nonzero;fill:rgb(50.196078%,86.27451%,65.098039%);fill-opacity:1;" d="M 54.070312 51.863281 C 53.777344 51.863281 53.496094 51.746094 53.289062 51.539062 L 52.183594 50.433594 C 51.765625 50.003906 51.773438 49.3125 52.199219 48.886719 C 52.625 48.460938 53.3125 48.457031 53.746094 48.875 L 54.152344 49.28125 L 58.894531 45.484375 C 59.371094 45.101562 60.066406 45.179688 60.445312 45.65625 C 60.828125 46.132812 60.75 46.824219 60.273438 47.207031 L 54.757812 51.621094 C 54.5625 51.777344 54.320312 51.863281 54.070312 51.863281 Z M 54.070312 51.863281 "/>
<path style=" stroke:none;fill-rule:nonzero;fill:rgb(72.156863%,73.72549%,79.215686%);fill-opacity:1;" d="M 48.550781 47.449219 L 35.308594 47.449219 C 34.699219 47.449219 34.207031 46.953125 34.207031 46.34375 C 34.207031 45.734375 34.699219 45.242188 35.308594 45.242188 L 48.550781 45.242188 C 49.160156 45.242188 49.65625 45.734375 49.65625 46.34375 C 49.65625 46.953125 49.160156 47.449219 48.550781 47.449219 Z M 41.929688 51.863281 L 35.308594 51.863281 C 34.699219 51.863281 34.207031 51.367188 34.207031 50.757812 C 34.207031 50.148438 34.699219 49.65625 35.308594 49.65625 L 41.929688 49.65625 C 42.539062 49.65625 43.035156 50.148438 43.035156 50.757812 C 43.035156 51.367188 42.539062 51.863281 41.929688 51.863281 Z M 41.929688 51.863281 "/>
<path style=" stroke:none;fill-rule:nonzero;fill:rgb(50.196078%,86.27451%,65.098039%);fill-opacity:1;" d="M 54.070312 18.757812 C 53.777344 18.757812 53.496094 18.640625 53.289062 18.433594 L 52.183594 17.332031 C 51.765625 16.898438 51.773438 16.210938 52.199219 15.785156 C 52.625 15.359375 53.3125 15.351562 53.746094 15.773438 L 54.152344 16.175781 L 58.894531 12.378906 C 59.371094 12 60.066406 12.074219 60.445312 12.550781 C 60.828125 13.027344 60.75 13.722656 60.273438 14.101562 L 54.757812 18.515625 C 54.5625 18.671875 54.320312 18.757812 54.070312 18.757812 Z M 54.070312 18.757812 "/>
</g>
</svg>
