<?xml version="1.0" encoding="UTF-8"?>
<svg xmlns="http://www.w3.org/2000/svg" xmlns:xlink="http://www.w3.org/1999/xlink" width="64px" height="64px" viewBox="0 0 64 64" version="1.1">
<defs>
<linearGradient id="linear0" gradientUnits="userSpaceOnUse" x1="256" y1="357.18" x2="256" y2="470.74" gradientTransform="matrix(0.125,0,0,0.125,0,0)">
<stop offset="0" style="stop-color:rgb(79.215686%,81.176471%,86.666667%);stop-opacity:1;"/>
<stop offset="1" style="stop-color:rgb(93.333333%,94.117647%,94.509804%);stop-opacity:1;"/>
</linearGradient>
<linearGradient id="linear1" gradientUnits="userSpaceOnUse" x1="256" y1="357.18" x2="256" y2="470.74" gradientTransform="matrix(0.125,0,0,0.125,0,0)">
<stop offset="0" style="stop-color:rgb(79.215686%,81.176471%,86.666667%);stop-opacity:1;"/>
<stop offset="1" style="stop-color:rgb(93.333333%,94.117647%,94.509804%);stop-opacity:1;"/>
</linearGradient>
<linearGradient id="linear2" gradientUnits="userSpaceOnUse" x1="256" y1="357.18" x2="256" y2="470.74" gradientTransform="matrix(0.125,0,0,0.125,0,0)">
<stop offset="0" style="stop-color:rgb(79.215686%,81.176471%,86.666667%);stop-opacity:1;"/>
<stop offset="1" style="stop-color:rgb(93.333333%,94.117647%,94.509804%);stop-opacity:1;"/>
</linearGradient>
</defs>
<g id="surface1">
<path style=" stroke:none;fill-rule:nonzero;fill:rgb(44.705882%,58.039216%,85.490196%);fill-opacity:1;" d="M 52.394531 33.1875 L 11.605469 33.1875 L 7.679688 38.894531 L 7.679688 43.757812 L 9.304688 51.410156 C 9.5 52.320312 10.300781 52.96875 11.230469 52.96875 L 52.765625 52.96875 C 53.691406 52.96875 54.496094 52.320312 54.691406 51.410156 L 56.316406 43.757812 L 56.316406 38.851562 Z M 52.394531 33.1875 "/>
<path style=" stroke:none;fill-rule:nonzero;fill:url(#linear0);" d="M 52.394531 33.1875 L 11.605469 33.1875 L 7.679688 38.894531 L 7.679688 43.757812 L 9.304688 51.410156 C 9.5 52.320312 10.300781 52.96875 11.230469 52.96875 L 52.765625 52.96875 C 53.691406 52.96875 54.496094 52.320312 54.691406 51.410156 L 56.316406 43.757812 L 56.316406 38.851562 Z M 52.394531 33.1875 "/>
<path style=" stroke:none;fill-rule:nonzero;fill:rgb(44.705882%,58.039216%,85.490196%);fill-opacity:1;" d="M 48.101562 22.125 C 41.332031 21.488281 32.40625 20.578125 19.554688 21.78125 L 15.898438 22.125 C 15.21875 22.1875 14.644531 22.664062 14.457031 23.320312 L 11.605469 33.1875 L 52.394531 33.1875 L 49.542969 23.320312 C 49.355469 22.664062 48.78125 22.1875 48.101562 22.125 Z M 48.101562 22.125 "/>
<path style=" stroke:none;fill-rule:nonzero;fill:rgb(44.705882%,58.039216%,85.490196%);fill-opacity:1;" d="M 52.394531 33.1875 L 11.605469 33.1875 L 14.457031 23.320312 C 14.648438 22.664062 15.21875 22.1875 15.902344 22.125 C 21.902344 21.5625 29.914062 20.703125 41.566406 21.542969 C 43.296875 21.667969 43.90625 21.730469 48.101562 22.125 C 48.78125 22.1875 49.355469 22.664062 49.542969 23.320312 Z M 52.394531 33.1875 "/>
<path style=" stroke:none;fill-rule:nonzero;fill:rgb(66.27451%,68.627451%,76.862745%);fill-opacity:1;" d="M 14.089844 33.1875 L 16.613281 24.457031 L 19.777344 24.160156 C 27.90625 23.398438 36.09375 23.398438 44.222656 24.160156 L 47.386719 24.457031 L 49.910156 33.1875 Z M 14.089844 33.1875 "/>
<path style=" stroke:none;fill-rule:nonzero;fill:rgb(36.862745%,38.039216%,45.882353%);fill-opacity:1;" d="M 50.40625 33.5625 L 13.59375 33.5625 L 16.324219 24.109375 C 21.191406 23.652344 25.371094 23.214844 32 23.214844 C 38.703125 23.214844 43.144531 23.683594 47.675781 24.109375 Z M 14.589844 32.8125 L 49.410156 32.8125 L 47.097656 24.8125 C 42.925781 24.421875 38.539062 23.96875 32 23.96875 C 25.523438 23.96875 21.203125 24.410156 16.902344 24.8125 Z M 14.589844 32.8125 "/>
<path style=" stroke:none;fill-rule:nonzero;fill:rgb(96.078431%,96.078431%,96.078431%);fill-opacity:1;" d="M 11.605469 44.382812 L 11.605469 40.4375 L 20.226562 43.078125 L 20.226562 46.21875 L 15.917969 46.21875 Z M 52.394531 44.382812 L 52.394531 40.4375 L 43.773438 43.078125 L 43.773438 46.21875 L 48.082031 46.21875 Z M 52.394531 44.382812 "/>
<path style=" stroke:none;fill-rule:nonzero;fill:rgb(36.862745%,38.039216%,45.882353%);fill-opacity:1;" d="M 23.640625 43.078125 L 23.640625 46.21875 L 26.265625 50.285156 L 37.738281 50.285156 L 40.363281 46.21875 L 40.363281 43.078125 Z M 23.640625 43.078125 "/>
<path style=" stroke:none;fill-rule:nonzero;fill:rgb(88.235294%,51.372549%,5.490196%);fill-opacity:1;" d="M 12.222656 47.457031 L 12.222656 50.285156 L 15.46875 50.285156 L 15.46875 48.851562 Z M 52.394531 47.457031 L 52.394531 50.285156 L 49.148438 50.285156 L 49.148438 48.851562 Z M 52.394531 47.457031 "/>
<path style=" stroke:none;fill-rule:nonzero;fill:rgb(36.862745%,38.039216%,45.882353%);fill-opacity:1;" d="M 7.679688 43.757812 L 7.679688 56.859375 C 7.679688 57.234375 7.828125 57.59375 8.09375 57.859375 C 8.359375 58.125 8.71875 58.273438 9.09375 58.273438 L 15.066406 58.273438 C 15.847656 58.273438 16.476562 57.640625 16.476562 56.859375 L 16.476562 52.96875 L 11.234375 52.96875 C 10.308594 52.96875 9.503906 52.320312 9.308594 51.410156 Z M 56.320312 43.757812 L 56.320312 56.859375 C 56.320312 57.234375 56.171875 57.59375 55.90625 57.859375 C 55.640625 58.125 55.28125 58.273438 54.90625 58.273438 L 48.933594 58.273438 C 48.152344 58.273438 47.523438 57.640625 47.523438 56.859375 L 47.523438 52.96875 L 52.765625 52.96875 C 53.691406 52.96875 54.496094 52.320312 54.691406 51.410156 Z M 56.320312 43.757812 "/>
<path style=" stroke:none;fill-rule:nonzero;fill:rgb(36.862745%,38.039216%,45.882353%);fill-opacity:1;" d="M 15.066406 58.648438 L 9.09375 58.648438 C 8.105469 58.648438 7.304688 57.847656 7.304688 56.859375 L 7.304688 40.199219 L 9.679688 51.332031 C 9.839844 52.066406 10.488281 52.589844 11.238281 52.59375 L 16.855469 52.59375 L 16.855469 56.859375 C 16.855469 57.847656 16.054688 58.648438 15.066406 58.648438 Z M 8.054688 47.316406 L 8.054688 56.859375 C 8.054688 57.433594 8.519531 57.898438 9.09375 57.898438 L 15.066406 57.898438 C 15.640625 57.898438 16.101562 57.433594 16.105469 56.859375 L 16.105469 53.34375 L 11.234375 53.34375 C 10.132812 53.339844 9.179688 52.566406 8.945312 51.488281 Z M 54.90625 58.648438 L 48.933594 58.648438 C 47.945312 58.648438 47.148438 57.847656 47.144531 56.859375 L 47.144531 52.59375 L 52.765625 52.59375 C 53.515625 52.589844 54.164062 52.066406 54.324219 51.332031 L 56.699219 40.199219 L 56.699219 56.859375 C 56.695312 57.847656 55.894531 58.648438 54.90625 58.648438 Z M 47.894531 53.34375 L 47.894531 56.859375 C 47.898438 57.433594 48.359375 57.898438 48.933594 57.898438 L 54.90625 57.898438 C 55.480469 57.898438 55.945312 57.433594 55.945312 56.859375 L 55.945312 47.316406 L 55.054688 51.488281 C 54.820312 52.566406 53.867188 53.339844 52.765625 53.34375 Z M 47.894531 53.34375 "/>
<path style=" stroke:none;fill-rule:nonzero;fill:rgb(44.705882%,58.039216%,85.490196%);fill-opacity:1;" d="M 52.394531 33.1875 L 54.476562 30.050781 C 54.710938 29.703125 55.101562 29.492188 55.523438 29.492188 L 58.242188 29.492188 C 58.578125 29.492188 58.898438 29.625 59.132812 29.859375 C 59.367188 30.097656 59.5 30.417969 59.5 30.75 L 59.5 31.929688 C 59.5 32.265625 59.367188 32.585938 59.132812 32.820312 C 58.894531 33.058594 58.574219 33.1875 58.242188 33.1875 Z M 11.605469 33.1875 L 9.523438 30.050781 C 9.289062 29.703125 8.898438 29.492188 8.476562 29.492188 L 5.757812 29.492188 C 5.421875 29.492188 5.101562 29.625 4.867188 29.859375 C 4.632812 30.097656 4.5 30.417969 4.5 30.75 L 4.5 31.929688 C 4.5 32.625 5.0625 33.1875 5.757812 33.1875 Z M 11.605469 33.1875 "/>
<path style=" stroke:none;fill-rule:nonzero;fill:rgb(36.862745%,38.039216%,45.882353%);fill-opacity:1;" d="M 58.242188 33.5625 L 51.695312 33.5625 L 54.164062 29.84375 C 54.464844 29.390625 54.976562 29.113281 55.523438 29.117188 L 58.242188 29.117188 C 59.144531 29.117188 59.875 29.847656 59.875 30.75 L 59.875 31.929688 C 59.875 32.832031 59.144531 33.5625 58.242188 33.5625 Z M 53.09375 32.8125 L 58.242188 32.8125 C 58.730469 32.8125 59.125 32.417969 59.125 31.929688 L 59.125 30.75 C 59.125 30.261719 58.730469 29.867188 58.242188 29.867188 L 55.523438 29.867188 C 55.226562 29.867188 54.953125 30.015625 54.789062 30.261719 Z M 12.304688 33.5625 L 5.757812 33.5625 C 4.855469 33.5625 4.125 32.832031 4.125 31.929688 L 4.125 30.75 C 4.125 29.847656 4.855469 29.117188 5.757812 29.117188 L 8.476562 29.117188 C 9.023438 29.117188 9.535156 29.390625 9.835938 29.847656 Z M 5.757812 29.867188 C 5.269531 29.867188 4.875 30.261719 4.875 30.75 L 4.875 31.929688 C 4.875 32.417969 5.269531 32.8125 5.757812 32.8125 L 10.90625 32.8125 L 9.210938 30.261719 C 9.046875 30.011719 8.773438 29.863281 8.476562 29.867188 Z M 5.757812 29.867188 "/>
<path style=" stroke:none;fill-rule:nonzero;fill:rgb(44.705882%,58.039216%,85.490196%);fill-opacity:1;" d="M 7.679688 39.226562 L 20.226562 43.078125 L 43.773438 43.078125 L 56.320312 39.226562 L 56.320312 38.851562 L 52.394531 33.191406 L 11.605469 33.191406 L 7.679688 38.898438 Z M 7.679688 39.226562 "/>
<path style=" stroke:none;fill-rule:nonzero;fill:rgb(36.862745%,38.039216%,45.882353%);fill-opacity:1;" d="M 52.765625 53.34375 L 11.234375 53.34375 C 10.132812 53.339844 9.179688 52.566406 8.945312 51.488281 L 7.304688 43.796875 L 7.304688 38.777344 L 11.410156 32.8125 L 52.589844 32.8125 L 56.695312 38.734375 L 56.695312 43.796875 C 56.683594 43.859375 55.070312 51.410156 55.054688 51.488281 C 54.820312 52.566406 53.867188 53.339844 52.765625 53.34375 Z M 8.054688 43.71875 L 9.679688 51.332031 C 9.839844 52.066406 10.488281 52.59375 11.238281 52.59375 L 52.765625 52.59375 C 53.515625 52.59375 54.164062 52.066406 54.324219 51.332031 L 55.949219 43.71875 L 55.949219 38.96875 L 52.199219 33.5625 L 11.800781 33.5625 L 8.050781 39.011719 Z M 8.054688 43.71875 "/>
<path style=" stroke:none;fill-rule:nonzero;fill:rgb(36.862745%,38.039216%,45.882353%);fill-opacity:1;" d="M 43.828125 43.453125 L 20.171875 43.453125 L 7.304688 39.5 L 7.304688 38.773438 L 11.410156 32.8125 L 52.589844 32.8125 L 56.695312 38.734375 L 56.695312 39.5 Z M 20.285156 42.703125 L 43.714844 42.703125 L 55.9375 38.953125 L 52.199219 33.5625 L 11.800781 33.5625 L 8.089844 38.960938 Z M 20.285156 42.703125 "/>
<path style=" stroke:none;fill-rule:nonzero;fill:rgb(44.705882%,58.039216%,85.490196%);fill-opacity:1;" d="M 29.136719 45.390625 L 35.289062 45.390625 C 35.902344 45.390625 36.402344 45.886719 36.402344 46.503906 L 36.402344 46.667969 C 36.402344 47.285156 35.902344 47.78125 35.289062 47.78125 L 29.136719 47.78125 C 28.519531 47.78125 28.023438 47.285156 28.023438 46.667969 L 28.023438 46.503906 C 28.023438 45.886719 28.519531 45.390625 29.136719 45.390625 Z M 29.136719 45.390625 "/>
<path style=" stroke:none;fill-rule:nonzero;fill:url(#linear1);" d="M 41.566406 21.542969 C 40.507812 23.570312 38.917969 25.269531 36.96875 26.457031 L 32.109375 29.429688 L 32.007812 29.378906 L 31.898438 29.433594 L 27.03125 26.457031 C 25.085938 25.261719 23.5 23.566406 22.433594 21.542969 C 28.804688 21.085938 35.199219 21.085938 41.566406 21.542969 Z M 41.566406 21.542969 "/>
<path style=" stroke:none;fill-rule:nonzero;fill:rgb(36.862745%,38.039216%,45.882353%);fill-opacity:1;" d="M 4.5 57.898438 L 59.5 57.898438 L 59.5 58.648438 L 4.5 58.648438 Z M 50.722656 20.683594 L 52.519531 18.882812 L 53.050781 19.414062 L 51.253906 21.214844 Z M 48.523438 17.074219 L 49.273438 17.074219 L 49.273438 19.617188 L 48.523438 19.617188 Z M 52.398438 22.519531 L 54.941406 22.519531 L 54.941406 23.269531 L 52.398438 23.269531 Z M 8.355469 23.90625 C 7.886719 23.414062 7.808594 22.664062 8.167969 22.085938 C 8.527344 21.503906 9.234375 21.242188 9.882812 21.441406 C 10.535156 21.640625 10.96875 22.257812 10.941406 22.9375 C 10.917969 23.539062 10.535156 24.070312 9.96875 24.28125 C 9.40625 24.492188 8.769531 24.34375 8.355469 23.90625 Z M 8.902344 23.394531 C 9.109375 23.617188 9.429688 23.695312 9.714844 23.589844 C 10 23.484375 10.195312 23.214844 10.203125 22.914062 C 10.214844 22.609375 10.039062 22.328125 9.761719 22.203125 C 9.488281 22.078125 9.160156 22.132812 8.941406 22.339844 C 8.640625 22.625 8.625 23.09375 8.902344 23.394531 Z M 17.179688 18.707031 C 16.710938 18.707031 16.289062 18.421875 16.113281 17.984375 C 15.9375 17.550781 16.042969 17.050781 16.382812 16.722656 C 16.71875 16.398438 17.222656 16.308594 17.652344 16.5 C 18.078125 16.691406 18.351562 17.125 18.332031 17.59375 C 18.3125 18.214844 17.800781 18.707031 17.179688 18.707031 Z M 17.179688 17.152344 C 17.019531 17.152344 16.875 17.246094 16.8125 17.394531 C 16.75 17.539062 16.777344 17.710938 16.886719 17.828125 C 17.011719 17.960938 17.210938 17.996094 17.375 17.90625 C 17.535156 17.820312 17.617188 17.632812 17.570312 17.453125 C 17.523438 17.277344 17.363281 17.152344 17.179688 17.152344 Z M 17.179688 17.152344 "/>
<path style=" stroke:none;fill-rule:nonzero;fill:rgb(66.27451%,68.627451%,76.862745%);fill-opacity:1;" d="M 5.417969 49.582031 L 4.667969 49.582031 L 4.667969 48.832031 L 5.417969 48.832031 Z M 5.417969 47.582031 L 4.667969 47.582031 L 4.667969 46.832031 L 5.417969 46.832031 Z M 5.417969 45.582031 L 4.667969 45.582031 L 4.667969 44.832031 L 5.417969 44.832031 Z M 5.417969 43.582031 L 4.667969 43.582031 L 4.667969 42.832031 L 5.417969 42.832031 Z M 5.417969 41.582031 L 4.667969 41.582031 L 4.667969 40.832031 L 5.417969 40.832031 Z M 5.417969 39.582031 L 4.667969 39.582031 C 4.664062 39.3125 4.683594 39.042969 4.726562 38.777344 L 5.46875 38.890625 C 5.433594 39.121094 5.414062 39.351562 5.417969 39.582031 Z M 5.792969 37.792969 L 5.109375 37.484375 C 5.21875 37.238281 5.351562 37 5.5 36.777344 L 6.125 37.191406 C 6 37.382812 5.886719 37.582031 5.792969 37.792969 Z M 6.875 36.234375 L 6.289062 35.761719 L 6.757812 35.175781 L 7.339844 35.648438 Z M 6.875 36.234375 "/>
<path style=" stroke:none;fill-rule:nonzero;fill:rgb(36.862745%,38.039216%,45.882353%);fill-opacity:1;" d="M 52.894531 33.5625 L 11.105469 33.5625 L 14.097656 23.214844 C 14.328125 22.410156 15.027344 21.828125 15.863281 21.75 C 22.652344 21.113281 31.625 20.203125 44.480469 21.40625 L 48.136719 21.75 C 48.96875 21.824219 49.671875 22.410156 49.902344 23.214844 Z M 12.105469 32.8125 L 51.894531 32.8125 L 49.183594 23.425781 C 49.039062 22.914062 48.589844 22.542969 48.058594 22.5 C 41.855469 21.917969 32.644531 20.929688 19.582031 22.15625 L 15.933594 22.5 C 15.402344 22.546875 14.957031 22.914062 14.808594 23.425781 Z M 12.105469 32.8125 "/>
<path style=" stroke:none;fill-rule:nonzero;fill:rgb(96.078431%,96.078431%,96.078431%);fill-opacity:1;" d="M 40.96875 15.625 L 40.96875 7.296875 L 38.03125 7.296875 C 35.921875 7.277344 33.851562 6.738281 32 5.726562 C 30.15625 6.753906 28.082031 7.292969 25.96875 7.296875 L 23.03125 7.296875 L 23.03125 15.625 C 23.050781 19.320312 24.972656 22.746094 28.113281 24.691406 L 32 27.066406 L 35.886719 24.691406 C 39.039062 22.757812 40.960938 19.324219 40.96875 15.625 Z M 40.96875 15.625 "/>
<path style=" stroke:none;fill-rule:nonzero;fill:url(#linear2);" d="M 29.382812 22.613281 C 26.957031 21.117188 25.476562 18.472656 25.464844 15.625 L 25.464844 9.730469 L 25.964844 9.730469 C 28.046875 9.730469 30.101562 9.289062 32 8.445312 C 33.902344 9.273438 35.953125 9.710938 38.027344 9.730469 L 38.527344 9.730469 L 38.527344 15.625 C 38.519531 18.476562 37.035156 21.121094 34.609375 22.613281 L 32 24.210938 Z M 29.382812 22.613281 "/>
<path style=" stroke:none;fill-rule:nonzero;fill:rgb(88.235294%,51.372549%,5.490196%);fill-opacity:1;" d="M 30.835938 18.859375 L 27.902344 15.925781 L 29.003906 14.828125 L 30.835938 16.65625 L 34.996094 12.496094 L 36.097656 13.597656 Z M 30.835938 18.859375 "/>
<path style=" stroke:none;fill-rule:nonzero;fill:rgb(36.862745%,38.039216%,45.882353%);fill-opacity:1;" d="M 31.980469 27.519531 C 31.710938 27.316406 32.230469 27.644531 27.917969 25.011719 C 24.660156 23 22.667969 19.449219 22.65625 15.621094 L 22.65625 6.921875 L 25.96875 6.921875 C 28.179688 6.921875 30.125 6.34375 32 5.296875 C 33.839844 6.347656 35.917969 6.90625 38.039062 6.921875 L 41.34375 6.921875 L 41.34375 15.625 C 41.332031 19.453125 39.34375 23.003906 36.082031 25.011719 C 31.671875 27.707031 32.285156 27.324219 32.019531 27.519531 L 32 27.507812 Z M 32 26.597656 L 32.019531 26.613281 L 35.691406 24.375 C 36.496094 23.878906 37.234375 23.273438 37.875 22.578125 C 39.613281 20.675781 40.582031 18.199219 40.59375 15.625 L 40.59375 7.671875 L 38.03125 7.671875 C 35.929688 7.652344 33.859375 7.132812 32 6.152344 C 30.144531 7.148438 28.074219 7.667969 25.96875 7.671875 L 23.40625 7.671875 L 23.40625 15.625 C 23.417969 19.195312 25.273438 22.503906 28.308594 24.375 C 32.261719 26.785156 31.964844 26.625 32 26.597656 Z M 32 26.597656 "/>
</g>
</svg>
