<?xml version="1.0" encoding="UTF-8"?>
<svg xmlns="http://www.w3.org/2000/svg" xmlns:xlink="http://www.w3.org/1999/xlink" width="64px" height="64px" viewBox="0 0 64 64" version="1.1">
<g id="surface1">
<path style=" stroke:none;fill-rule:nonzero;fill:rgb(18.039216%,70.196078%,74.117647%);fill-opacity:1;" d="M 63.449219 40.410156 L 61.40625 39.332031 L 61.40625 41.402344 Z M 63.449219 40.410156 "/>
<path style=" stroke:none;fill-rule:nonzero;fill:rgb(13.72549%,16.078431%,18.039216%);fill-opacity:1;" d="M 17.238281 40.589844 L 10.636719 35.945312 C 9.664062 33.519531 8.046875 31.359375 6.210938 30.300781 C 3.242188 28.585938 0.832031 30.40625 0.832031 34.367188 C 0.832031 38.332031 3.242188 42.933594 6.210938 44.648438 C 7.621094 45.460938 8.902344 45.480469 9.863281 44.851562 Z M 17.238281 40.589844 "/>
<path style=" stroke:none;fill-rule:nonzero;fill:rgb(13.72549%,16.078431%,18.039216%);fill-opacity:1;" d="M 42.257812 55.214844 L 35.65625 50.570312 C 34.683594 48.144531 33.066406 45.984375 31.234375 44.925781 C 28.261719 43.210938 25.851562 45.03125 25.851562 48.996094 C 25.851562 52.957031 28.261719 57.558594 31.234375 59.273438 C 32.640625 60.085938 33.921875 60.105469 34.882812 59.476562 Z M 42.257812 55.214844 "/>
<path style=" stroke:none;fill-rule:nonzero;fill:rgb(38.823529%,85.882353%,100%);fill-opacity:1;" d="M 62.488281 40.433594 L 62.304688 40.539062 C 61.722656 37.542969 60.25 34.769531 58.046875 32.597656 L 52.929688 27.558594 L 51.859375 25.570312 C 49.175781 20.570312 45.148438 16.417969 40.226562 13.585938 L 23.789062 4.125 L 2.851562 16.257812 L 2.480469 20.246094 C 0.851562 23.394531 0 26.886719 0 30.429688 L 0 31.152344 C 0 33.734375 1.375 36.121094 3.609375 37.414062 L 37.902344 57.25 C 37.929688 57.269531 37.957031 57.289062 37.988281 57.304688 C 38.042969 57.335938 38.09375 57.363281 38.148438 57.394531 L 38.324219 57.496094 C 38.386719 57.53125 38.453125 57.566406 38.519531 57.59375 C 38.535156 57.601562 38.550781 57.609375 38.566406 57.617188 C 38.625 57.640625 38.679688 57.660156 38.734375 57.679688 C 38.742188 57.683594 38.75 57.6875 38.757812 57.6875 C 40.867188 58.59375 43.296875 58.464844 45.3125 57.300781 L 61.046875 48.203125 C 62.875 47.148438 64 45.199219 64 43.089844 L 64 41.304688 C 64 40.53125 63.160156 40.046875 62.488281 40.433594 Z M 62.488281 40.433594 "/>
<path style=" stroke:none;fill-rule:nonzero;fill:rgb(18.039216%,70.196078%,74.117647%);fill-opacity:1;" d="M 62.488281 40.433594 L 44 51.121094 C 43.132812 51.625 42.152344 51.855469 41.179688 51.820312 C 40.503906 49.152344 39.105469 46.695312 37.109375 44.730469 L 31.996094 39.691406 L 30.925781 37.703125 C 28.242188 32.703125 24.210938 28.554688 19.292969 25.722656 L 2.851562 16.257812 L 2.480469 20.246094 C 0.851562 23.394531 0 26.886719 0 30.429688 L 0 31.152344 C 0 33.734375 1.375 36.121094 3.609375 37.414062 L 37.898438 57.25 C 37.929688 57.269531 37.957031 57.289062 37.988281 57.304688 C 38.042969 57.335938 38.09375 57.363281 38.148438 57.394531 L 38.324219 57.496094 C 38.464844 57.578125 38.609375 57.640625 38.757812 57.6875 C 40.867188 58.59375 43.296875 58.464844 45.3125 57.300781 L 61.046875 48.203125 C 62.875 47.148438 64 45.199219 64 43.089844 L 64 41.304688 C 64 40.53125 63.160156 40.046875 62.488281 40.433594 Z M 62.488281 40.433594 "/>
<path style=" stroke:none;fill-rule:nonzero;fill:rgb(18.039216%,21.568627%,23.921569%);fill-opacity:1;" d="M 36.613281 55.207031 C 36.613281 59.167969 34.203125 60.992188 31.234375 59.273438 C 28.261719 57.558594 25.851562 52.957031 25.851562 48.996094 C 25.851562 45.03125 28.261719 43.210938 31.234375 44.925781 C 34.203125 46.640625 36.613281 51.246094 36.613281 55.207031 Z M 36.613281 55.207031 "/>
<path style=" stroke:none;fill-rule:nonzero;fill:rgb(80.784314%,80.784314%,80.784314%);fill-opacity:1;" d="M 33.878906 53.628906 C 33.878906 55.574219 32.695312 56.472656 31.234375 55.628906 C 29.773438 54.785156 28.589844 52.519531 28.589844 50.574219 C 28.589844 48.625 29.773438 47.730469 31.234375 48.574219 C 32.695312 49.417969 33.878906 51.679688 33.878906 53.628906 Z M 33.878906 53.628906 "/>
<path style=" stroke:none;fill-rule:nonzero;fill:rgb(38.431373%,46.27451%,50.588235%);fill-opacity:1;" d="M 32.667969 52.929688 C 32.667969 53.984375 32.027344 54.472656 31.234375 54.011719 C 30.441406 53.554688 29.800781 52.328125 29.800781 51.273438 C 29.800781 50.214844 30.441406 49.730469 31.234375 50.1875 C 32.027344 50.644531 32.667969 51.871094 32.667969 52.929688 Z M 32.667969 52.929688 "/>
<path style=" stroke:none;fill-rule:nonzero;fill:rgb(18.039216%,21.568627%,23.921569%);fill-opacity:1;" d="M 11.59375 40.582031 C 11.59375 44.542969 9.183594 46.367188 6.214844 44.648438 C 3.242188 42.933594 0.832031 38.332031 0.832031 34.367188 C 0.832031 30.40625 3.242188 28.585938 6.214844 30.300781 C 9.183594 32.015625 11.59375 36.621094 11.59375 40.582031 Z M 11.59375 40.582031 "/>
<path style=" stroke:none;fill-rule:nonzero;fill:rgb(80.784314%,80.784314%,80.784314%);fill-opacity:1;" d="M 8.859375 39.003906 C 8.859375 40.949219 7.671875 41.847656 6.210938 41.003906 C 4.75 40.160156 3.566406 37.894531 3.566406 35.949219 C 3.566406 34 4.75 33.105469 6.210938 33.949219 C 7.671875 34.792969 8.859375 37.054688 8.859375 39.003906 Z M 8.859375 39.003906 "/>
<path style=" stroke:none;fill-rule:nonzero;fill:rgb(38.431373%,46.27451%,50.588235%);fill-opacity:1;" d="M 7.648438 38.304688 C 7.648438 39.359375 7.003906 39.847656 6.210938 39.386719 C 5.421875 38.929688 4.777344 37.703125 4.777344 36.648438 C 4.777344 35.589844 5.421875 35.105469 6.210938 35.5625 C 7.003906 36.019531 7.648438 37.246094 7.648438 38.304688 Z M 7.648438 38.304688 "/>
<path style=" stroke:none;fill-rule:nonzero;fill:rgb(18.823529%,30.588235%,45.882353%);fill-opacity:1;" d="M 33.105469 39.050781 L 51.917969 28.148438 L 47.710938 21.875 C 46.625 20.261719 44.476562 19.769531 42.796875 20.75 L 31.101562 27.582031 C 29.261719 28.65625 28.621094 31.003906 29.65625 32.863281 Z M 33.105469 39.050781 "/>
<path style=" stroke:none;fill-rule:nonzero;fill:rgb(100%,100%,100%);fill-opacity:1;" d="M 61.425781 37.617188 L 58.3125 39.433594 C 57.859375 39.695312 57.578125 40.183594 57.578125 40.707031 L 57.578125 43.285156 L 62.308594 40.554688 C 62.113281 39.546875 61.816406 38.5625 61.425781 37.617188 Z M 61.425781 37.617188 "/>
<path style=" stroke:none;fill-rule:nonzero;fill:rgb(93.72549%,60%,6.27451%);fill-opacity:1;" d="M 61.390625 41.082031 L 62.308594 40.554688 C 62.113281 39.546875 61.816406 38.5625 61.425781 37.617188 L 60.515625 38.148438 C 60.898438 39.09375 61.191406 40.078125 61.390625 41.082031 Z M 61.390625 41.082031 "/>
<path style=" stroke:none;fill-rule:nonzero;fill:rgb(100%,100%,100%);fill-opacity:1;" d="M 42.464844 52.007812 L 45.917969 50.015625 L 45.917969 48.296875 C 45.917969 47.527344 45.085938 47.046875 44.421875 47.429688 L 41.453125 49.144531 C 40.847656 49.492188 40.101562 49.492188 39.496094 49.144531 L 37.488281 47.984375 C 37.488281 49.484375 38.289062 50.871094 39.589844 51.621094 L 40.265625 52.011719 C 40.945312 52.402344 41.785156 52.402344 42.46875 52.007812 Z M 42.464844 52.007812 "/>
<path style=" stroke:none;fill-rule:nonzero;fill:rgb(93.72549%,60%,6.27451%);fill-opacity:1;" d="M 40.332031 49.386719 C 40.042969 49.367188 39.757812 49.292969 39.496094 49.144531 L 37.488281 47.984375 C 37.488281 49.488281 38.289062 50.875 39.589844 51.621094 L 40.265625 52.011719 C 40.582031 52.195312 40.9375 52.289062 41.289062 52.300781 C 41.070312 51.296875 40.746094 50.324219 40.332031 49.386719 Z M 40.332031 49.386719 "/>
<path style=" stroke:none;fill-rule:nonzero;fill:rgb(18.039216%,70.196078%,74.117647%);fill-opacity:1;" d="M 33.105469 39.050781 L 44.421875 47.429688 L 58.3125 39.433594 L 51.917969 28.148438 Z M 33.105469 39.050781 "/>
<path style=" stroke:none;fill-rule:nonzero;fill:rgb(14.117647%,23.137255%,34.509804%);fill-opacity:1;" d="M 16.515625 31.804688 L 30.253906 39.5625 L 26.277344 33.90625 C 25.09375 32.222656 23.554688 30.816406 21.773438 29.785156 L 16.515625 26.75 Z M 16.515625 31.804688 "/>
<path style=" stroke:none;fill-rule:nonzero;fill:rgb(34.901961%,44.313725%,54.509804%);fill-opacity:1;" d="M 50.351562 27.863281 L 46.375 22.207031 C 45.878906 21.503906 45.316406 20.851562 44.707031 20.25 C 44.054688 20.238281 43.398438 20.398438 42.796875 20.75 L 40.316406 22.199219 Z M 50.351562 27.863281 "/>
<path style=" stroke:none;fill-rule:nonzero;fill:rgb(14.117647%,23.137255%,34.509804%);fill-opacity:1;" d="M 14.675781 25.6875 L 8.832031 22.3125 C 7.238281 21.394531 5.195312 22.078125 4.480469 23.777344 L 4.0625 24.773438 L 14.675781 30.765625 Z M 14.675781 25.6875 "/>
</g>
</svg>
