<?xml version="1.0" encoding="UTF-8"?>
<svg xmlns="http://www.w3.org/2000/svg" xmlns:xlink="http://www.w3.org/1999/xlink" width="64px" height="64px" viewBox="0 0 64 64" version="1.1">
<g id="surface1">
<path style=" stroke:none;fill-rule:nonzero;fill:rgb(98.431373%,91.372549%,84.705882%);fill-opacity:1;" d="M 56 61 L 8 61 L 8 3 L 52 3 C 54.210938 3 56 4.789062 56 7 Z M 56 61 "/>
<path style=" stroke:none;fill-rule:nonzero;fill:rgb(89.019608%,82.745098%,76.078431%);fill-opacity:1;" d="M 21 26 C 15.476562 26 11 21.523438 11 16 C 11 10.476562 15.476562 6 21 6 C 26.523438 6 31 10.476562 31 16 C 30.992188 21.519531 26.519531 25.992188 21 26 Z M 21 8 C 16.582031 8 13 11.582031 13 16 C 13 20.417969 16.582031 24 21 24 C 25.417969 24 29 20.417969 29 16 C 28.996094 11.582031 25.417969 8.003906 21 8 Z M 21 8 "/>
<path style=" stroke:none;fill-rule:nonzero;fill:rgb(74.901961%,69.411765%,63.921569%);fill-opacity:1;" d="M 41 53 C 41 53.550781 41.449219 54 42 54 L 50 54 C 50.550781 54 51 53.550781 51 53 C 51 52.449219 50.550781 52 50 52 L 42 52 C 41.449219 52 41 52.449219 41 53 Z M 41 53 "/>
<path style=" stroke:none;fill-rule:nonzero;fill:rgb(74.901961%,69.411765%,63.921569%);fill-opacity:1;" d="M 50 56 L 34 56 C 33.449219 56 33 56.449219 33 57 C 33 57.550781 33.449219 58 34 58 L 50 58 C 50.550781 58 51 57.550781 51 57 C 51 56.449219 50.550781 56 50 56 Z M 50 56 "/>
<path style=" stroke:none;fill-rule:nonzero;fill:rgb(74.901961%,69.411765%,63.921569%);fill-opacity:1;" d="M 24 18 C 24 16.34375 22.65625 15 21 15 C 20.449219 15 20 14.550781 20 14 C 20 13.449219 20.449219 13 21 13 C 21.550781 13 22 13.449219 22 14 C 22 14.550781 22.449219 15 23 15 C 23.550781 15 24 14.550781 24 14 C 24 12.730469 23.199219 11.597656 22 11.171875 L 22 11 C 22 10.449219 21.550781 10 21 10 C 20.449219 10 20 10.449219 20 11 L 20 11.171875 C 18.625 11.660156 17.796875 13.066406 18.042969 14.507812 C 18.292969 15.945312 19.539062 17 21 17 C 21.550781 17 22 17.449219 22 18 C 22 18.550781 21.550781 19 21 19 C 20.449219 19 20 18.550781 20 18 C 20 17.449219 19.550781 17 19 17 C 18.449219 17 18 17.449219 18 18 C 18 19.269531 18.800781 20.402344 20 20.828125 L 20 21 C 20 21.550781 20.449219 22 21 22 C 21.550781 22 22 21.550781 22 21 L 22 20.828125 C 23.199219 20.402344 24 19.269531 24 18 Z M 24 18 "/>
<path style=" stroke:none;fill-rule:nonzero;fill:rgb(74.901961%,69.411765%,63.921569%);fill-opacity:1;" d="M 18 30 L 14 30 C 13.449219 30 13 30.449219 13 31 C 13 31.550781 13.449219 32 14 32 L 18 32 C 18.550781 32 19 31.550781 19 31 C 19 30.449219 18.550781 30 18 30 Z M 18 30 "/>
<path style=" stroke:none;fill-rule:nonzero;fill:rgb(74.901961%,69.411765%,63.921569%);fill-opacity:1;" d="M 40 30 L 24 30 C 23.449219 30 23 30.449219 23 31 C 23 31.550781 23.449219 32 24 32 L 40 32 C 40.550781 32 41 31.550781 41 31 C 41 30.449219 40.550781 30 40 30 Z M 40 30 "/>
<path style=" stroke:none;fill-rule:nonzero;fill:rgb(74.901961%,69.411765%,63.921569%);fill-opacity:1;" d="M 48 32 L 50 32 C 50.550781 32 51 31.550781 51 31 C 51 30.449219 50.550781 30 50 30 L 48 30 C 47.449219 30 47 30.449219 47 31 C 47 31.550781 47.449219 32 48 32 Z M 48 32 "/>
<path style=" stroke:none;fill-rule:nonzero;fill:rgb(74.901961%,69.411765%,63.921569%);fill-opacity:1;" d="M 18 34 L 14 34 C 13.449219 34 13 34.449219 13 35 C 13 35.550781 13.449219 36 14 36 L 18 36 C 18.550781 36 19 35.550781 19 35 C 19 34.449219 18.550781 34 18 34 Z M 18 34 "/>
<path style=" stroke:none;fill-rule:nonzero;fill:rgb(74.901961%,69.411765%,63.921569%);fill-opacity:1;" d="M 40 34 L 24 34 C 23.449219 34 23 34.449219 23 35 C 23 35.550781 23.449219 36 24 36 L 40 36 C 40.550781 36 41 35.550781 41 35 C 41 34.449219 40.550781 34 40 34 Z M 40 34 "/>
<path style=" stroke:none;fill-rule:nonzero;fill:rgb(74.901961%,69.411765%,63.921569%);fill-opacity:1;" d="M 48 36 L 50 36 C 50.550781 36 51 35.550781 51 35 C 51 34.449219 50.550781 34 50 34 L 48 34 C 47.449219 34 47 34.449219 47 35 C 47 35.550781 47.449219 36 48 36 Z M 48 36 "/>
<path style=" stroke:none;fill-rule:nonzero;fill:rgb(74.901961%,69.411765%,63.921569%);fill-opacity:1;" d="M 18 38 L 14 38 C 13.449219 38 13 38.449219 13 39 C 13 39.550781 13.449219 40 14 40 L 18 40 C 18.550781 40 19 39.550781 19 39 C 19 38.449219 18.550781 38 18 38 Z M 18 38 "/>
<path style=" stroke:none;fill-rule:nonzero;fill:rgb(74.901961%,69.411765%,63.921569%);fill-opacity:1;" d="M 40 38 L 24 38 C 23.449219 38 23 38.449219 23 39 C 23 39.550781 23.449219 40 24 40 L 40 40 C 40.550781 40 41 39.550781 41 39 C 41 38.449219 40.550781 38 40 38 Z M 40 38 "/>
<path style=" stroke:none;fill-rule:nonzero;fill:rgb(74.901961%,69.411765%,63.921569%);fill-opacity:1;" d="M 48 40 L 50 40 C 50.550781 40 51 39.550781 51 39 C 51 38.449219 50.550781 38 50 38 L 48 38 C 47.449219 38 47 38.449219 47 39 C 47 39.550781 47.449219 40 48 40 Z M 48 40 "/>
<path style=" stroke:none;fill-rule:nonzero;fill:rgb(74.901961%,69.411765%,63.921569%);fill-opacity:1;" d="M 18 42 L 14 42 C 13.449219 42 13 42.449219 13 43 C 13 43.550781 13.449219 44 14 44 L 18 44 C 18.550781 44 19 43.550781 19 43 C 19 42.449219 18.550781 42 18 42 Z M 18 42 "/>
<path style=" stroke:none;fill-rule:nonzero;fill:rgb(74.901961%,69.411765%,63.921569%);fill-opacity:1;" d="M 40 42 L 24 42 C 23.449219 42 23 42.449219 23 43 C 23 43.550781 23.449219 44 24 44 L 40 44 C 40.550781 44 41 43.550781 41 43 C 41 42.449219 40.550781 42 40 42 Z M 40 42 "/>
<path style=" stroke:none;fill-rule:nonzero;fill:rgb(74.901961%,69.411765%,63.921569%);fill-opacity:1;" d="M 48 44 L 50 44 C 50.550781 44 51 43.550781 51 43 C 51 42.449219 50.550781 42 50 42 L 48 42 C 47.449219 42 47 42.449219 47 43 C 47 43.550781 47.449219 44 48 44 Z M 48 44 "/>
<path style=" stroke:none;fill-rule:nonzero;fill:rgb(74.901961%,69.411765%,63.921569%);fill-opacity:1;" d="M 18 46 L 14 46 C 13.449219 46 13 46.449219 13 47 C 13 47.550781 13.449219 48 14 48 L 18 48 C 18.550781 48 19 47.550781 19 47 C 19 46.449219 18.550781 46 18 46 Z M 18 46 "/>
<path style=" stroke:none;fill-rule:nonzero;fill:rgb(74.901961%,69.411765%,63.921569%);fill-opacity:1;" d="M 41 47 C 41 46.449219 40.550781 46 40 46 L 24 46 C 23.449219 46 23 46.449219 23 47 C 23 47.550781 23.449219 48 24 48 L 40 48 C 40.550781 48 41 47.550781 41 47 Z M 41 47 "/>
<path style=" stroke:none;fill-rule:nonzero;fill:rgb(74.901961%,69.411765%,63.921569%);fill-opacity:1;" d="M 48 48 L 50 48 C 50.550781 48 51 47.550781 51 47 C 51 46.449219 50.550781 46 50 46 L 48 46 C 47.449219 46 47 46.449219 47 47 C 47 47.550781 47.449219 48 48 48 Z M 48 48 "/>
<path style=" stroke:none;fill-rule:nonzero;fill:rgb(74.901961%,69.411765%,63.921569%);fill-opacity:1;" d="M 40 18 L 50 18 C 50.550781 18 51 17.550781 51 17 C 51 16.449219 50.550781 16 50 16 L 40 16 C 39.449219 16 39 16.449219 39 17 C 39 17.550781 39.449219 18 40 18 Z M 40 18 "/>
<path style=" stroke:none;fill-rule:nonzero;fill:rgb(74.901961%,69.411765%,63.921569%);fill-opacity:1;" d="M 35 22 L 50 22 C 50.550781 22 51 21.550781 51 21 C 51 20.449219 50.550781 20 50 20 L 35 20 C 34.449219 20 34 20.449219 34 21 C 34 21.550781 34.449219 22 35 22 Z M 35 22 "/>
<path style=" stroke:none;fill-rule:nonzero;fill:rgb(74.901961%,69.411765%,63.921569%);fill-opacity:1;" d="M 35 26 L 50 26 C 50.550781 26 51 25.550781 51 25 C 51 24.449219 50.550781 24 50 24 L 35 24 C 34.449219 24 34 24.449219 34 25 C 34 25.550781 34.449219 26 35 26 Z M 35 26 "/>
<path style=" stroke:none;fill-rule:nonzero;fill:rgb(89.019608%,82.745098%,76.078431%);fill-opacity:1;" d="M 56 7 L 56 11 L 50 11 L 50 6 C 50 4.34375 48.65625 3 47 3 L 52 3 C 54.210938 3 56 4.789062 56 7 Z M 56 7 "/>
</g>
</svg>
